<?xml version="1.0" encoding="UTF-8"?>
<svg width="400" height="400" viewBox="0 0 400 400" fill="none" xmlns="http://www.w3.org/2000/svg">
  <rect width="400" height="400" fill="#F3F4F6"/>
  <path d="M200 150C177.909 150 160 167.909 160 190C160 212.091 177.909 230 200 230C222.091 230 240 212.091 240 190C240 167.909 222.091 150 200 150ZM200 220C183.458 220 170 206.542 170 190C170 173.458 183.458 160 200 160C216.542 160 230 173.458 230 190C230 206.542 216.542 220 200 220Z" fill="#9CA3AF"/>
  <path d="M200 170C188.954 170 180 178.954 180 190C180 201.046 188.954 210 200 210C211.046 210 220 201.046 220 190C220 178.954 211.046 170 200 170Z" fill="#9CA3AF"/>
</svg>